<?xml version="1.0" encoding="UTF-8"?>
<!DOCTYPE svg PUBLIC "-//W3C//DTD SVG 1.1//EN" "http://www.w3.org/Graphics/SVG/1.1/DTD/svg11.dtd">
<svg xmlns="http://www.w3.org/2000/svg" version="1.1" width="2230px" height="539px"
     style="shape-rendering:geometricPrecision; text-rendering:geometricPrecision; image-rendering:optimizeQuality; fill-rule:evenodd; clip-rule:evenodd"
>
    <title>Shoulder Logos and Graphics</title>
    <g>
        <path style="opacity:1" fill="#bfcd28"
              d="M 347.5,194.5 C 358.399,193.744 369.066,194.91 379.5,198C 385.225,202.374 387.059,207.874 385,214.5C 359.91,242.316 325.076,272.149 280.5,285C 213.508,292.446 186.508,287.78 139.5,284C 130.015,279.636 134.015,275.469 137.5,272C 177.24,248.132 219.24,229.132 263.5,215C 282.007,209.706 320.007,202.872 347.5,194.5 Z"/>
    </g>
    <g>
        <path style="opacity:1" fill="#bfcd28"
              d="M 395.5,210.5 C 396.693,210.97 397.36,211.97 397.5,213.5C 402.247,234.901 410,256.235 410,277.5C 390.25,291.479 307.917,304.979 255.5,318C 210.331,332.089 166.664,349.756 124.5,371C 90.6997,392.289 61.033,418.456 35.5,449.5C 17.7537,393.239 32.7537,347.739 80.5,313C 107.91,298.084 137.243,291.25 168.5,292.5C 185.218,292.944 201.885,294.111 218.5,296C 284.413,299.948 338.913,277.115 382,227.5C 386.99,222.167 391.49,216.5 395.5,210.5 Z"/>
    </g>
    <g>
        <path style="opacity:1" fill="#3c7d29"
              d="M 1469.5,237.5 C 1481.76,234.971 1491.1,238.971 1497.5,249.5C 1498.67,322.831 1498.83,396.164 1498,469.5C 1495.54,474.149 1491.71,476.983 1486.5,478C 1478.8,479.334 1471.47,478.334 1464.5,475C 1462.62,473.457 1461.12,471.624 1460,469.5C 1459.67,461.167 1459.33,452.833 1459,444.5C 1440.23,467.072 1416.73,473.906 1388.5,465C 1361.94,451.414 1347.77,429.58 1346,399.5C 1343.18,376.203 1347.18,354.203 1358,333.5C 1376.08,309.36 1399.91,300.86 1429.5,308C 1439.76,311.71 1448.59,317.543 1456,325.5C 1456.33,300.167 1456.67,274.833 1457,249.5C 1459.74,243.921 1463.91,239.921 1469.5,237.5 Z M 1421.5,337.5 C 1440.93,339.424 1452.09,350.091 1455,369.5C 1457.23,382.571 1456.9,395.571 1454,408.5C 1445.96,432.607 1430.12,440.107 1406.5,431C 1398.16,425.312 1392.99,417.479 1391,407.5C 1387.74,393.16 1387.74,378.827 1391,364.5C 1395.69,349.105 1405.86,340.105 1421.5,337.5 Z"/>
    </g>
    <g>
        <path style="opacity:1" fill="#3c7d29"
              d="M 733.5,238.5 C 739.176,238.334 744.843,238.501 750.5,239C 755.789,240.306 759.956,243.139 763,247.5C 763.333,274.167 763.667,300.833 764,327.5C 783.874,305.931 807.707,300.098 835.5,310C 851.998,317.512 861.165,330.345 863,348.5C 864.728,387.489 864.894,426.489 863.5,465.5C 862.529,473.306 858.196,478.139 850.5,480C 845.167,480.667 839.833,480.667 834.5,480C 829.645,478.495 825.812,475.662 823,471.5C 822,432.5 821,393.5 820,354.5C 816.334,343.39 808.501,337.723 796.5,337.5C 774.837,340.677 764.004,353.343 764,375.5C 763.667,405.5 763.333,435.5 763,465.5C 761.077,471.721 756.91,475.554 750.5,477C 744.833,477.667 739.167,477.667 733.5,477C 729.49,475.657 725.99,473.491 723,470.5C 721.824,397.906 720.99,325.239 720.5,252.5C 720.231,249.447 721.064,246.78 723,244.5C 726.351,242.079 729.851,240.079 733.5,238.5 Z"/>
    </g>
    <g>
        <path style="opacity:1" fill="#3c7d29"
              d="M 1285.5,239.5 C 1297.77,237.131 1307.1,241.131 1313.5,251.5C 1314.07,254.468 1314.4,257.468 1314.5,260.5C 1313.69,328.826 1313.19,397.16 1313,465.5C 1308.38,472.808 1301.72,476.141 1293,475.5C 1284.25,476.041 1277.42,472.708 1272.5,465.5C 1271.81,397.162 1271.14,328.829 1270.5,260.5C 1270.83,250.187 1275.83,243.187 1285.5,239.5 Z"/>
    </g>
    <g>
        <path style="opacity:1" fill="#3c7d29"
              d="M 593.5,245.5 C 616.339,244.362 637.339,249.862 656.5,262C 673.712,276.639 680.878,295.139 678,317.5C 674.984,321.092 671.151,323.258 666.5,324C 660.5,324.667 654.5,324.667 648.5,324C 643.849,323.258 640.016,321.092 637,317.5C 633.903,294.067 620.57,282.4 597,282.5C 586.892,282.735 577.392,285.235 568.5,290C 561.086,296.295 559.586,303.795 564,312.5C 570.295,318.72 577.795,322.887 586.5,325C 604.677,329.377 622.677,334.377 640.5,340C 679.852,355.874 693.685,384.374 682,425.5C 673.026,447.576 656.859,461.076 633.5,466C 605.979,471.97 578.979,470.303 552.5,461C 532.721,450.879 519.888,435.046 514,413.5C 512.458,408.08 511.291,402.58 510.5,397C 512.332,390.509 516.666,386.842 523.5,386C 532.01,384.886 540.344,385.552 548.5,388C 550.305,388.972 551.972,390.139 553.5,391.5C 561.728,425.468 583.062,438.301 617.5,430C 635.573,424.659 643.073,412.826 640,394.5C 636.38,388.559 631.213,384.393 624.5,382C 606.589,376.689 588.589,371.689 570.5,367C 553.725,362.543 539.892,353.71 529,340.5C 514.448,316.69 515.114,293.357 531,270.5C 542.28,258.441 556.113,250.941 572.5,248C 579.649,247.163 586.649,246.33 593.5,245.5 Z"/>
    </g>
    <g>
        <path style="opacity:1" fill="#bfcd28"
              d="M 354.5,363.5 C 357.198,352.914 360.365,342.58 364,332.5C 356.978,343.67 349.811,354.67 342.5,365.5C 282.06,377.221 222.393,392.055 163.5,410C 135.897,420.298 110.23,433.965 86.5,451C 77.6667,459.833 68.8333,468.667 60,477.5C 52.6421,475.42 47.4754,470.92 44.5,464C 53.5149,447.347 65.1816,432.681 79.5,420C 125.5,380.326 178.166,352.66 237.5,337C 296.161,319.002 355.494,303.835 415.5,291.5C 417.405,311.445 418.239,331.445 418,351.5C 416.681,353.487 414.848,354.654 412.5,355C 393.173,357.944 373.839,360.777 354.5,363.5 Z"/>
    </g>
    <g>
        <path style="opacity:1" fill="#3c7d29"
              d="M 1100.5,295.5 C 1107.26,295.123 1113.92,295.623 1120.5,297C 1124.61,298.779 1127.78,301.612 1130,305.5C 1129.03,342.5 1129.36,379.5 1131,416.5C 1133.52,429.684 1141.52,436.351 1155,436.5C 1176.65,433.837 1187.32,421.504 1187,399.5C 1187.33,368.833 1187.67,338.167 1188,307.5C 1192.14,299.008 1198.98,295.008 1208.5,295.5C 1218.02,295.008 1224.86,299.008 1229,307.5C 1229.67,360.167 1229.67,412.833 1229,465.5C 1222.44,474.578 1213.61,477.744 1202.5,475C 1197.29,473.983 1193.46,471.149 1191,466.5C 1190.67,459.167 1190.33,451.833 1190,444.5C 1171.17,466.423 1147.67,473.59 1119.5,466C 1099.82,458.298 1089.32,443.798 1088,422.5C 1087.33,383.5 1087.33,344.5 1088,305.5C 1090.89,300.434 1095.05,297.101 1100.5,295.5 Z"/>
    </g>
    <g>
        <path style="opacity:1" fill="#3c7d29"
              d="M 1715.5,295.5 C 1724.34,294.006 1732.17,296.006 1739,301.5C 1740.75,303.49 1741.75,305.823 1742,308.5C 1742.33,315.167 1742.67,321.833 1743,328.5C 1758.31,303.879 1778.81,298.712 1804.5,313C 1813.35,318.875 1816.51,327.042 1814,337.5C 1808.68,348.734 1799.85,352.9 1787.5,350C 1766.38,338.302 1753.22,344.469 1748,368.5C 1747.06,374.803 1746.39,381.137 1746,387.5C 1745.67,414.5 1745.33,441.5 1745,468.5C 1742.54,473.149 1738.71,475.983 1733.5,477C 1726.75,477.877 1720.08,477.544 1713.5,476C 1708.57,474.073 1705.41,470.573 1704,465.5C 1703.33,411.833 1703.33,358.167 1704,304.5C 1707.04,300.406 1710.88,297.406 1715.5,295.5 Z"/>
    </g>
    <g>
        <path style="opacity:1" fill="#3c7d29"
              d="M 965.5,305.5 C 1004.08,302.199 1032.25,317.533 1050,351.5C 1061.73,383.22 1058.07,412.886 1039,440.5C 1016.72,464.957 989.217,473.79 956.5,467C 915.234,456.212 894.9,429.379 895.5,386.5C 896.799,340.215 920.133,313.215 965.5,305.5 Z M 974.5,339.5 C 993.403,340.7 1005.57,350.367 1011,368.5C 1015.85,386.876 1013.52,404.21 1004,420.5C 992.047,434.293 977.547,437.793 960.5,431C 945.116,420.734 937.783,406.234 938.5,387.5C 938.136,374.609 941.636,362.943 949,352.5C 955.892,344.804 964.392,340.471 974.5,339.5 Z"/>
    </g>
    <g>
        <path style="opacity:1" fill="#3c7d29"
              d="M 1587.5,305.5 C 1621.28,301.641 1646.45,314.308 1663,343.5C 1670.04,361.594 1673.2,380.261 1672.5,399.5C 1638.2,399.606 1603.87,399.606 1569.5,399.5C 1569.79,421.288 1580.63,433.954 1602,437.5C 1609.45,437.353 1615.79,434.687 1621,429.5C 1624.03,424.77 1626.53,419.77 1628.5,414.5C 1629.09,414.709 1629.59,415.043 1630,415.5C 1632.67,412.836 1635.84,411.002 1639.5,410C 1653.21,406.721 1663.21,411.221 1669.5,423.5C 1660.83,449.002 1643.16,463.835 1616.5,468C 1558.19,473.513 1527.86,447.013 1525.5,388.5C 1524.64,361.878 1533.64,339.378 1552.5,321C 1562.82,312.623 1574.48,307.456 1587.5,305.5 Z M 1599.5,337.5 C 1619.68,340.702 1630.02,352.702 1630.5,373.5C 1610.17,373.5 1589.83,373.5 1569.5,373.5C 1569.88,353.144 1579.88,341.144 1599.5,337.5 Z"/>
    </g>
    <g>
        <path style="opacity:1" fill="#ffffff28"
              d="M 421.5,338.5 C 422.808,342.019 422.808,345.685 421.5,349.5C 420.414,345.845 420.414,342.178 421.5,338.5 Z"/>
    </g>
    <g>
        <path style="opacity:1" fill="#3c7d29"
              d="M 354.5,363.5 C 350.523,364.259 346.523,364.925 342.5,365.5C 349.811,354.67 356.978,343.67 364,332.5C 360.365,342.58 357.198,352.914 354.5,363.5 Z"/>
    </g>
    <g>
        <path style="opacity:1" fill="#bfcd28"
              d="M 281.5,447.5 C 297.819,432.678 312.986,416.678 327,399.5C 331.768,392.949 336.268,386.282 340.5,379.5C 366.423,375.277 392.09,371.277 417.5,367.5C 415.734,385.094 412.568,402.428 408,419.5C 364.594,423.281 322.428,432.614 281.5,447.5 Z"/>
    </g>
    <g>
        <path style="opacity:1" fill="#3c7d29"
              d="M 340.5,379.5 C 336.268,386.282 331.768,392.949 327,399.5C 312.986,416.678 297.819,432.678 281.5,447.5C 236.363,459.573 194.03,477.907 154.5,502.5C 144.274,502.461 134.274,503.961 124.5,507C 115.352,510.717 106.018,514.05 96.5,517C 95.944,517.383 95.6107,517.883 95.5,518.5C 86.0969,518.703 77.4302,521.703 69.5,527.5C 67.7697,526.974 66.4363,525.974 65.5,524.5C 71.7422,514.435 73.0755,503.768 69.5,492.5C 73.3585,483.335 79.0251,475.668 86.5,469.5C 165.808,473.515 237.475,452.015 301.5,405C 308.454,398.888 314.454,392.054 319.5,384.5C 326.216,381.738 333.216,380.071 340.5,379.5 Z"/>
    </g>
    <g>
        <path style="opacity:1" fill="#bfcd28"
              d="M 319.5,384.5 C 314.454,392.054 308.454,398.888 301.5,405C 237.475,452.015 165.808,473.515 86.5,469.5C 108.877,448.96 134.543,433.46 163.5,423C 214.497,406.084 266.497,393.251 319.5,384.5 Z"/>
    </g>
    <g>
        <path style="opacity:1" fill="#bfcd28"
              d="M 393.5,429.5 C 397.548,429.395 401.548,429.728 405.5,430.5C 406.16,441.013 402.16,449.18 393.5,455C 369.546,471.805 343.213,483.472 314.5,490C 198.779,510.931 191.779,514.431 154.5,516.5C 150.207,512.563 155.54,508.73 159.5,505C 170.833,500.667 186.167,488.333 201.5,485C 239.835,470.332 278.835,452.665 318.5,442C 343.594,437.476 368.594,433.31 393.5,429.5 Z"/>
    </g>
    <circle cx="28" cy="512" r="26" fill="#3c7d29"/>
    <g>
        <path style="opacity:1" fill="#bdcc28"
              d="M 154.5,502.5 C 148.386,507.064 141.719,510.898 134.5,514C 121.523,515.764 108.523,517.264 95.5,518.5C 95.6107,517.883 95.944,517.383 96.5,517C 106.018,514.05 115.352,510.717 124.5,507C 134.274,503.961 144.274,502.461 154.5,502.5 Z"/>
    </g>
</svg>
